# xmcd CD database file
#
# Track frame offsets:
#	150
#	13051
#	23223
#	38028
#	45368
#	56827
#	74812
#
# Disc length: 1103 seconds
#
# Revision: 0
# Processed by: cddbd v1.5.1PL0 Copyright (c) Steve Scherf et al.
# Submitted via: CDex 1.51
#
DISCID=5c044d07
DTITLE=Valley Boys - Valley Boys Christmas
DYEAR=2000
DGENRE=Country
TTITLE0=Everyday is Christmas
TTITLE1=Mary's Boy Child
TTITLE2=God Loves People More than Anything
TTITLE3=Jingle Bells
TTITLE4=C-H-R-I-S-T-M-A-S
TTITLE5=Mary Was the First One to Carry the Gospel
TTITLE6=Away in a Manger
EXTD=YEAR: 2000
EXTT0=
EXTT1=
EXTT2=
EXTT3=
EXTT4=
EXTT5=
EXTT6=
PLAYORDER=
